<?xml version="1.0" encoding="utf-8"?>
<!-- Generator: Adobe Illustrator 24.1.2, SVG Export Plug-In . SVG Version: 6.00 Build 0)  -->
<svg version="1.1" id="Camada_1" xmlns="http://www.w3.org/2000/svg" xmlns:xlink="http://www.w3.org/1999/xlink" x="0px" y="0px"
	 viewBox="0 0 512 512" style="enable-background:new 0 0 512 512;" xml:space="preserve">
<g>
	<path d="M257.9,347.6c-9.1-8.7-17.1-16.2-24.9-24c-35.4-35.3-70.6-70.6-106-105.9c-8.7-8.7-12.2-18.9-8.3-30.7
		c6.7-19.9,30.7-25,46.1-10c11.3,11,22.3,22.3,33.5,33.5c1.3,1.3,2.7,2.5,4.5,4.2c3.7-32.2,35.7-38.2,52.6-17.5
		c0.9-3.6,1.6-7,2.6-10.2c6.5-19.9,30.3-26.1,45.2-11.5c13.5,13.1,26.6,26.4,39.7,39.8c1.3,1.3,1.3,3.9,1.9,5.9
		c-1.9-0.6-4.4-0.7-5.7-1.9c-12.9-12.5-25.4-25.4-38.3-37.9c-10.5-10.2-22.6-10.2-31.8-0.7c-8.3,8.6-8.3,21.9,0.4,30.8
		c10.5,10.7,21.2,21.2,31.8,31.8c1,1,2.3,1.8,2.9,3c0.7,1.4,0.8,3.1,1.1,4.7c-1.7-0.2-4.1,0.3-5.1-0.7c-5.9-5.5-11.6-11.3-17.3-17
		c-12.2-12.1-24.3-24.3-36.6-36.2c-12.5-12.1-32.8-4.8-36,11.2c-1.6,8,0.7,14.7,6.5,20.4c12.8,12.7,25.4,25.4,38.1,38.1
		c1.1,1.1,2.6,2.1,3.2,3.4c0.7,1.5,0.5,3.5,0.8,5.2c-1.7-0.3-4-0.1-5-1.1c-9.2-8.9-18.2-18.1-27.3-27.1c-22.1-22-44.3-44-66.1-66.2
		c-9.1-9.2-23.4-8.1-30.7-0.7c-8.6,8.7-8.8,22.6,0.3,31.9c15.1,15.3,30.4,30.4,45.7,45.6c29.3,29.3,58.7,58.6,87.9,87.9
		c1.5,1.5,2.2,3.9,3.2,5.9c-2,0.8-4,2.2-6.1,2.4c-20.8,2.6-41.1,7.3-59,18.6c-7.3,4.7-13.5,11.3-19.8,17.5c-3.1,3-4.2,7.1-1.4,11.3
		c2.7,4.1,6.8,3.7,10.7,3c10.4-1.8,20.8-4.1,31.2-5.9c24.8-4.1,49.8-5.2,74.9-4.7c10.8,0.2,21.7,0.7,32.5,1.5c2,0.1,3.8,2.2,5.7,3.4
		c-2,0.8-3.9,2.2-5.9,2.2c-20.1-0.2-40.2-1.2-60.4-0.9c-25.2,0.3-50.1,4.2-74.7,9.6c-4.1,0.9-8.9,1.3-12.7,0.1
		c-8.5-2.8-11.4-13.4-6.2-20.9c12.5-18.1,30.8-27.5,51.1-33.7C236,352.1,245.9,350.4,257.9,347.6z"/>
	<path d="M362.5,402.6c1-7,4-11.9,8.4-16.3c21.3-21.2,42.5-42.4,63.7-63.6c9.1-9.1,9.8-13.2,3.9-24.5
		c-10.8-20.5-20.9-41.5-32.7-61.4c-7.3-12.2-16.7-23.4-26.3-34c-11.6-12.9-24.4-24.7-36.8-36.9c-7.6-7.5-12.8-8.3-22.3-4.2
		c-1.4,0.6-3.4,0-5.1-0.1c0.9-1.7,1.4-4.1,2.8-5c6.9-4.5,18.8-4.2,25,1.8c22,21.4,45.7,41.4,63,67.2c6.4,9.6,11.5,20.1,16.9,30.4
		c7.7,14.4,15.3,28.8,22.8,43.3c4.9,9.4,4.1,16.4-3.9,24.6c-16.2,16.7-32.8,33-49.3,49.5c-5.9,5.9-11.9,11.6-17.7,17.5
		c-7.3,7.4-7.2,14.9,0.1,22.2c5.2,5.2,10.2,10.4,15.5,15.5c8.6,8.1,20,8.1,28.5-0.3c19-18.7,37.8-37.6,56.6-56.5
		c8.8-8.9,8.5-20.4-0.3-29.4c-2.5-2.5-5.2-4.9-7.4-7.7c-0.7-0.9-0.1-2.8-0.2-4.2c1.3,0,3.2-0.5,3.8,0.2c4.9,5.5,10.7,10.7,14.2,17.1
		c5.1,9.4,2.7,19.1-4.6,26.6c-19.7,20.2-39.7,40.2-59.9,59.9c-8.9,8.8-23.6,8.7-32.8,0.2c-6.7-6.1-13.3-12.4-19.3-19.2
		C366.1,411.8,364.7,406.9,362.5,402.6z"/>
	<path d="M31.6,169.8c0.7-44.5,34.1-80.6,78.6-85.3c41.2-4.3,83.6,25.3,91.2,67.7c0.9,5.2,1.7,10.5,1.9,15.7
		c0.1,1.8-1.7,3.7-2.7,5.6c-1.1-1.8-3-3.5-3.1-5.3c-0.7-17.2-5.2-33-16.2-46.5c-19.8-24.4-44.9-35-76.5-30.4
		c-34,5-59.8,33.7-65.4,63.6c-7.4,39.3,16.4,79.7,54.9,90.8c7.5,2.2,15.4,2.5,23.1,3.9c2,0.4,3.8,1.8,5.7,2.8
		c-1.8,1-3.6,2.7-5.5,2.8c-39.5,1.1-76.4-29-83.4-68C33.3,181.4,32.5,175.6,31.6,169.8z"/>
	<path d="M70.8,169.5c-1.4,20.5,17.1,41.3,33.8,44.4c0.8,0.1,1.7,0.3,2.2,0.9c1.2,1.3,2.1,2.7,3.2,4.1c-1.7,0.5-3.6,1.6-5,1.3
		c-19.2-5-32.3-16.7-37.9-35.9c-10.6-36.5,18.4-71.3,56.1-67.6c19.9,1.9,39.7,18.5,44.9,37.6c0.3,1.1,0.7,2.4,0.5,3.5
		c-0.2,1.4-1,2.6-1.6,3.9c-1.3-0.9-3-1.5-3.8-2.8c-0.9-1.4-1-3.3-1.6-5c-8.2-21.4-26.4-32.1-46.5-31.3c-21.1,0.8-39,16.2-43.6,36.8
		C70.7,162.7,71,166.2,70.8,169.5z"/>
	<path d="M391,393.9c1.4,0.8,2.7,1.3,3.6,2.3c4.9,4.8,9.9,9.6,14.5,14.6c1.1,1.1,1,3.3,1.4,5.1c-1.9-0.4-4.3-0.2-5.6-1.3
		c-5.1-4.6-9.9-9.5-14.6-14.5c-0.9-1-1.3-2.7-1.4-4.1C388.9,395.3,390.2,394.6,391,393.9z"/>
</g>
</svg>
